<?xml version="1.0" encoding="UTF-8"?>
<svg version="1.1" xmlns="http://www.w3.org/2000/svg" width="32" height="32">
<path d="M0 0 C10.56 0 21.12 0 32 0 C32 10.56 32 21.12 32 32 C21.44 32 10.88 32 0 32 C0 21.44 0 10.88 0 0 Z " fill="#FAFCFD" transform="translate(0,0)"/>
<path d="M0 0 C4.81706073 2.3630864 7.6369136 5.18293927 10 10 C10.30785557 13.03386697 10.24291613 15.96354841 10 19 C2.75898264 19.61364554 2.75898264 19.61364554 -0.9375 16.625 C-4.16232491 12.52067739 -4.18607926 10.21021938 -4 5 C-3.67 4.34 -3.34 3.68 -3 3 C-3.49628906 3.42152344 -3.99257813 3.84304688 -4.50390625 4.27734375 C-9.07011394 7.9597693 -12.11024529 9.75459355 -18 10 C-16.64717831 5.57258356 -14.76701112 3.63690779 -11 1 C-7.52363841 -0.7381808 -3.800959 -0.45508953 0 0 Z " fill="#64CBF4" transform="translate(20,1)"/>
<path d="M0 0 C0.32871094 0.99580078 0.32871094 0.99580078 0.6640625 2.01171875 C2.83957069 8.06953627 4.73873194 11.2931975 10 15 C10 15.33 10 15.66 10 16 C0.73098767 16.90511151 0.73098767 16.90511151 -3.21875 14.83984375 C-6.59886103 12.03979415 -8.93946645 9.35997126 -10 5 C-10 4.01 -10 3.02 -10 2 C-6.45648927 0.38010938 -3.87280581 -0.10414268 0 0 Z " fill="#485175" transform="translate(11,14)"/>
<path d="M0 0 C0 0.66 0 1.32 0 2 C-0.99 2.66 -1.98 3.32 -3 4 C-3.58348752 6.6556728 -3.58348752 6.6556728 -3.6875 9.625 C-3.75324219 10.62789062 -3.81898437 11.63078125 -3.88671875 12.6640625 C-3.92410156 13.43492188 -3.96148437 14.20578125 -4 15 C-4.66 13.68 -5.32 12.36 -6 11 C-9.3 11.33 -12.6 11.66 -16 12 C-13.11413707 19.7748343 -13.11413707 19.7748343 -7 25 C-4.29715756 25.58385423 -1.77429283 25.81191235 1 26 C1 26.33 1 26.66 1 27 C-2.99795892 27.95619733 -6.70803922 28.1039592 -10.8125 28.0625 C-11.97394531 28.05347656 -13.13539062 28.04445313 -14.33203125 28.03515625 C-15.21246094 28.02355469 -16.09289062 28.01195313 -17 28 C-17.05790353 24.70840684 -17.09356261 21.41694397 -17.125 18.125 C-17.14175781 17.18785156 -17.15851562 16.25070313 -17.17578125 15.28515625 C-17.18544922 13.94130859 -17.18544922 13.94130859 -17.1953125 12.5703125 C-17.20578613 11.74289551 -17.21625977 10.91547852 -17.22705078 10.06298828 C-17 8 -17 8 -15 6 C-13.9275 5.896875 -12.855 5.79375 -11.75 5.6875 C-7.22642014 4.85817703 -3.988602 0 0 0 Z " fill="#F3F5F6" transform="translate(17,4)"/>
<path d="M0 0 C0 0.66 0 1.32 0 2 C-0.99 2.66 -1.98 3.32 -3 4 C-3.58348752 6.6556728 -3.58348752 6.6556728 -3.6875 9.625 C-3.75324219 10.62789062 -3.81898437 11.63078125 -3.88671875 12.6640625 C-3.92410156 13.43492188 -3.96148437 14.20578125 -4 15 C-4.66 13.68 -5.32 12.36 -6 11 C-7.64666203 11.1135629 -9.29236082 11.24117381 -10.9375 11.375 C-11.85402344 11.44460938 -12.77054688 11.51421875 -13.71484375 11.5859375 C-14.46894531 11.72257813 -15.22304687 11.85921875 -16 12 C-16.33 12.66 -16.66 13.32 -17 14 C-17.125 11.125 -17.125 11.125 -17 8 C-15 6 -15 6 -11.75 5.6875 C-7.22642014 4.85817703 -3.988602 0 0 0 Z " fill="#E7EFF5" transform="translate(17,4)"/>
<path d="M0 0 C0.66 0 1.32 0 2 0 C2.66 0.99 3.32 1.98 4 3 C6.20725073 3.36362818 6.20725073 3.36362818 8.625 3.1875 C9.44226562 3.16042969 10.25953125 3.13335937 11.1015625 3.10546875 C11.72804688 3.07066406 12.35453125 3.03585937 13 3 C13 5.31 13 7.62 13 10 C5.8329718 10.60737527 5.8329718 10.60737527 2 7.8125 C-0.13857753 4.80512535 -0.51264032 3.58848221 0 0 Z " fill="#30BCF0" transform="translate(17,10)"/>
<path d="M0 0 C-1.5071158 4.06921267 -4.33375958 6.79860056 -8 9 C-11.875 9.8125 -11.875 9.8125 -15 10 C-13.64717831 5.57258356 -11.76701112 3.63690779 -8 1 C-5.29120665 -0.35439668 -2.99066732 -0.06501451 0 0 Z " fill="#24A9E4" transform="translate(17,1)"/>
<path d="M0 0 C4.03384128 2.07143201 5.92856799 3.96615872 8 8 C7.34 8 6.68 8 6 8 C6 8.66 6 9.32 6 10 C4.00045254 10.04254356 1.99958364 10.04080783 0 10 C-0.33 9.67 -0.66 9.34 -1 9 C-0.91062197 7.47480724 -0.75462854 5.95318071 -0.5625 4.4375 C-0.46066406 3.61121094 -0.35882812 2.78492188 -0.25390625 1.93359375 C-0.17011719 1.29550781 -0.08632813 0.65742187 0 0 Z " fill="#76CFF5" transform="translate(21,2)"/>
<path d="M0 0 C0.99 0 1.98 0 3 0 C3.33 1.32 3.66 2.64 4 4 C4.7425 4.0825 5.485 4.165 6.25 4.25 C9.51221354 5.1396946 10.80954878 6.48503749 13 9 C6.25 9.125 6.25 9.125 4 8 C4 7.01 4 6.02 4 5 C2.68 4.34 1.36 3.68 0 3 C0 2.01 0 1.02 0 0 Z " fill="#404372" transform="translate(8,21)"/>
<path d="M0 0 C0 1.65 0 3.3 0 5 C-2.64 5 -5.28 5 -8 5 C-8.33 3.68 -8.66 2.36 -9 1 C-5.94152152 0.45627049 -3.11227195 0 0 0 Z " fill="#26B4EC" transform="translate(30,15)"/>
<path d="M0 0 C1.65 0 3.3 0 5 0 C5.38218767 1.65614657 5.71395102 3.32457024 6 5 C5 6 5 6 2.4375 6.0625 C1.2309375 6.0315625 1.2309375 6.0315625 0 6 C0 4.02 0 2.04 0 0 Z " fill="#E8863F" transform="translate(6,14)"/>
<path d="M0 0 C1.32 0 2.64 0 4 0 C4.66 2.97 5.32 5.94 6 9 C4.68 8.67 3.36 8.34 2 8 C0.47835901 5.10888212 0 3.28176588 0 0 Z " fill="#303F5A" transform="translate(1,16)"/>
<path d="M0 0 C0.66 0.33 1.32 0.66 2 1 C1.67 2.98 1.34 4.96 1 7 C-0.98 7.33 -2.96 7.66 -5 8 C-3.8141763 4.62496331 -2.72426311 2.35277269 0 0 Z " fill="#4260A8" transform="translate(7,3)"/>
<path d="M0 0 C1.65 1.65 3.3 3.3 5 5 C4.34 5.66 3.68 6.32 3 7 C1.68 7 0.36 7 -1 7 C-0.67 4.69 -0.34 2.38 0 0 Z " fill="#A3DDF7" transform="translate(23,3)"/>
<path d="M0 0 C2.64 0.66 5.28 1.32 8 2 C8 1.34 8 0.68 8 0 C8.99 0.33 9.98 0.66 11 1 C11 1.66 11 2.32 11 3 C8.04335481 4.4783226 5.25770263 4.06032783 2 4 C1.34 2.68 0.68 1.36 0 0 Z " fill="#54C6F3" transform="translate(19,10)"/>
<path d="M0 0 C0 2.97 0 5.94 0 9 C-0.66 7.68 -1.32 6.36 -2 5 C-2.99 4.34 -3.98 3.68 -5 3 C-1.125 0 -1.125 0 0 0 Z " fill="#7DB4D8" transform="translate(13,10)"/>
<path d="M0 0 C0.66 0 1.32 0 2 0 C2.1875 2.375 2.1875 2.375 2 5 C1.01 5.66 0.02 6.32 -1 7 C-1.04254356 5.00045254 -1.04080783 2.99958364 -1 1 C-0.67 0.67 -0.34 0.34 0 0 Z " fill="#2180C7" transform="translate(9,3)"/>
</svg>
